<svg id="图层_1" data-name="图层 1" xmlns="http://www.w3.org/2000/svg" viewBox="0 0 240 240">
  <g>
    <path d="M100.19,76.21c4.08,23.87,20.66,31.15,23.4,32s14.95-10.75,9.6-29.54-19.51-32.2-22.42-47.84C110.41,31.36,96.16,52.63,100.19,76.21Z" style="fill: #f5bd1e"/>
    <path d="M51.67,184.7c9.39.42,19.9-13.63,19-25.48C69.82,149,61,146.34,55.22,134.33s-4.47-25.52-1.17-37.12h0c-6.23,7.08-27,32.33-20.89,60.47C35,166.37,41.33,184.24,51.67,184.7Z" style="fill: #f5bd1e"/>
    <path d="M89,144.7c5.21-4.3,11.41-11,12.44-19.85,1.25-10.73-5.9-17.32-11.25-30.81-3.26-8.21-6.4-20.35-5.29-37-1.07,1.09-26,27.31-16.68,58.77C72.94,131.75,84.12,141.09,89,144.7Z" style="fill: #f5bd1e"/>
    <path d="M110,30.78v0l0,0Z" style="fill: #f5bd1e"/>
    <path d="M170,57.67q2.89-16.33,4.14-30.28-18.73,9.45-26,23.47t.08,29.1Q167.06,74,170,57.67Z" style="fill: #f5bd1e"/>
    <path d="M96.7,174.63A36.16,36.16,0,0,0,76.56,184a34.66,34.66,0,0,0-7.78,11.29s10.77,10.35,38.75,9.43c28.07-.76,58.34-33.91,58.34-33.91-23.73,11.72-39,10.93-48.72,7.63C112.38,176.87,105.86,173.62,96.7,174.63Z" style="fill: #f5bd1e"/>
    <path d="M119.41,127.23l-.07.11.09-.11Z" style="fill: #f5bd1e"/>
    <path d="M214.57,74.9a47.86,47.86,0,0,1-17.72,12c-11.91,4.49-19.2,1.27-31.62,5.18a53.83,53.83,0,0,0-20.82,12.59h0s-.2.37-7.58,18.68l.25.13c.87.43,4.07,1.79,10.13,1.89a63.11,63.11,0,0,0,27.25-5.69C198.49,108.7,213.24,77.76,214.57,74.9Z" style="fill: #f5bd1e"/>
    <path d="M101.59,159.12s3.35,12.93,30,7.87,50.15-21.23,60.23-39.65c-19.69,13.43-35.2,15.7-46,15.12-11.29-.61-21.52-4.57-31.64,1.16C107.31,147.53,103.62,154.18,101.59,159.12Z" style="fill: #f5bd1e"/>
    <polygon points="68.77 195.35 68.78 195.33 68.78 195.33 68.77 195.35" style="fill: #f5bd1e"/>
    <path d="M136.83,102.78c-1.62,2-23.81,29.57-56.15,63.19C66,181.3,45.78,210.31,46.44,216.67s9.13-5.16,13.19-12.24,26.14-37.19,33.94-45.07C105.79,146.9,123.55,123.21,136.83,102.78Z" style="fill: #f5bd1e"/>
  </g>
</svg>
