<svg id="图层_1" data-name="图层 1" xmlns="http://www.w3.org/2000/svg" viewBox="0 0 240 240">
  <g>
    <path d="M207.54,99.86a19.69,19.69,0,0,1-4.1,5.91l-.22.26c-.4.52-.75.93-1,1.18a15,15,0,0,1-1.36,1.54l-.85.85a17,17,0,0,1-3,2.42l-.46.28a18.12,18.12,0,0,1-1.8,1,25.49,25.49,0,0,1-3.51,1.43,17,17,0,0,1-5.23.82h-2.47v.14a16.49,16.49,0,0,1-.15,2.23v.12A23.51,23.51,0,0,1,183,121c-.08.37-.16.74-.26,1.11a18,18,0,0,1-1.41,3.87,20.75,20.75,0,0,1-6.75,7.84,23.48,23.48,0,0,1-5.84,3,13.87,13.87,0,0,0-1.81.84l-.24.12c-.63.33-1.29.71-2,1.15.37.85.71,1.74,1,2.74l.06.19c.15.42.29.89.41,1.37a36.12,36.12,0,0,1,.77,4.43l0,.22a16.44,16.44,0,0,1,.13,2.1v1.48a23.44,23.44,0,0,1-.21,3.38,21.53,21.53,0,0,1-.52,3.06c-.35,1.66-.79,3.15-1.15,4.35a43.61,43.61,0,0,1-1.74,4.94l-.92,2.14q-.2.45-.42.9c-.71,1.41-1.44,2.74-2.31,4.2l-.28.45c-1,1.6-2.21,3.42-3.63,5.3a75.31,75.31,0,0,1-5.77,6.85l-.38.39-2.53,2.53c-.28.28-.56.54-.85.8a23.8,23.8,0,0,1-2,1.83l-1,.81c-1.36,1.11-2.89,2.35-4.73,3.62l-.21.14c-1.51,1-2.92,1.79-4,2.36a33.74,33.74,0,0,1-4,2,26.91,26.91,0,0,1-2.68,1.05,21.68,21.68,0,0,1-2.72.94c-.87.28-1.73.53-2.55.75C141.21,206,158,201,173.62,188.89l3.95-3.06-2.43,4.36c-.27.48-.54.93-.8,1.39l-.18.3a10.08,10.08,0,0,0,1.22-.84,80.12,80.12,0,0,0,24.1-27,63.17,63.17,0,0,0,7.92-28.21A51.18,51.18,0,0,0,204,115.69c-.53-1.5-1.06-3-1.59-4.34l-.7-1.84,1.91.48a2.64,2.64,0,0,1,1.32.69,35.25,35.25,0,0,1,5,6.41,74,74,0,0,0-2.19-16.44C207.68,100.39,207.61,100.13,207.54,99.86Z" style="fill: #7d86fb"/>
    <path d="M216.39,49.93a.79.79,0,0,1-.12-.23,3,3,0,0,0-.24-.47l-.63-.95c-.44-.52-.9-1.1-1.37-1.67L212.7,45l-.92-1c-.62-.7-1.25-1.43-1.86-2s-1.13-1.13-1.73-1.63c-1.17-1.06-2.43-2.11-3.65-3.13l-2-1.64a1.93,1.93,0,0,0-.24-.17,3.52,3.52,0,0,1-.38-.25l-.13-.08h0l-.19-.11a1.07,1.07,0,0,1-.59-.21h-.34l-.21.11h-.1l-.14.12-.22.19,0,0a1.27,1.27,0,0,1-.21.29l-.15.29a1.18,1.18,0,0,1-.2.41.89.89,0,0,0-.06.3l0,.2a9.2,9.2,0,0,1-.48,1.77,21.6,21.6,0,0,1-6.16,9.56c-3.28,3-6.63,6.2-10.57,10.14-.57.57-1.14,1.14-1.73,1.71-1.14,1.11-2.32,2.27-3.43,3.45l-6,6v.6h-.75a1.18,1.18,0,0,1-.48.1h-.63a1.08,1.08,0,0,1-.62-.18,1.05,1.05,0,0,1-.49-.36,1.57,1.57,0,0,1-.28-.31l-.61-.61c-.4-.45-.78-.83-1.16-1.21s-.82-.83-1.21-1.27c-1-1-2-2-2.93-3a16.25,16.25,0,0,1-1.58,2.86c-.27.41-.55.78-.8,1.11s-.36.5-.57.75a19.22,19.22,0,0,1-4,6,16.41,16.41,0,0,1-1.93,1.67V79a2.28,2.28,0,0,1-1.28,2.43,7.14,7.14,0,0,1-2.17.18h-1.91a17.33,17.33,0,0,1-3.72,5.53,17.64,17.64,0,0,1-8.34,4.66l-.08.07c-.08.06-.34.33-.59.58l-.08.08a31.81,31.81,0,0,1-2.87,2.51,19.2,19.2,0,0,1-1.66,1.18c-.38.25-.89.59-1.53,1-.42.27-.85.53-1.23.74s-.83.52-1.08.71l-2,1.53-1.76,1.51-2,2c-.1.11-.2.21-.29.32-.25.33-.76,1-.91,1.25l-.48.79c-.33.55-.7,1.17-.84,1.47s-.33.68-.51,1l-.21.62c-.08.26-.22.73-.42,1.29a8.94,8.94,0,0,0-.27,3.6l0,.12c0,.26.07.54.09.7s.09.38.13.62a18.57,18.57,0,0,0,4.35,8.54l.07.08c.23.27.51.62.64.76l.24.24a12.82,12.82,0,0,0,5.68,3.55l.8.17.63.12c.4,0,.79,0,1.19.08l1-.07.58-.12.1,0,.89-.26c.5-.23.92-.4,1.24-.54l.16-.06.44-.21.79-.34.19-.08a18,18,0,0,1,1.75-.9,15.94,15.94,0,0,1,3-1.09,16.71,16.71,0,0,1,4.58-.63h.53a17.88,17.88,0,0,1,3.49.35,16.82,16.82,0,0,1,2.66.69,50.17,50.17,0,0,1,6.39-4,31.24,31.24,0,0,1,4.36-2,5.77,5.77,0,0,0,1.43-.7,3,3,0,0,0,1.07-1.23s0-.08,0-.14l.1-.4c.05-.23.06-.5.09-.78s.05-.61.09-.94v-7a2.31,2.31,0,0,1,.17-1,2.49,2.49,0,0,1,1-1.45l.95-.46a1,1,0,0,0,.46-.22l.13-.15a1,1,0,0,0,.19-.3,2.73,2.73,0,0,0,.14-.88v-5a1.16,1.16,0,0,1,.23-.73,1.17,1.17,0,0,1,.51-.5,1.19,1.19,0,0,1,.47-.19l.13-.13H185.5v-.21h.84l.11,0a1,1,0,0,1,.21-.1l.22-.22H187l.07,0,.15-.09.24-.24h.12l.59-.59c.15-.2.31-.39.47-.57l.44-.53.19-.25a14.51,14.51,0,0,1,1.17-1.34l.31-.32a1.77,1.77,0,0,0,.48-.65l-.12-.2-.32-.38a2.37,2.37,0,0,0-.25-.29c-1.36-1.31-2.74-2.67-4.12-4s-2.74-2.69-4.11-4l-.33-.33a1.6,1.6,0,0,1-.47-.7,2.31,2.31,0,0,1-.26-1,2.42,2.42,0,0,1,.31-1.08,3.65,3.65,0,0,1,.72-.9l.22-.23c8-8.1,16.14-16.45,24-24.52l.12-.12a7,7,0,0,1,1.06-.84,3.15,3.15,0,0,1,.27-.19l.32-.23a2.65,2.65,0,0,1,.88-.31,1.77,1.77,0,0,0,.28-.11l.18-.07c.39-.11.78-.19,1.17-.28s.7-.15,1.05-.25A19.57,19.57,0,0,0,214,51.8l.44-.14a1.68,1.68,0,0,1,.28-.13l.05-.05.23-.08a2,2,0,0,0,.6-.31l.26-.16a1.33,1.33,0,0,0,.33-.24,1.9,1.9,0,0,0,.26-.34l0-.07Z" style="fill: #7d86fb"/>
    <polygon points="52.88 184.38 52.88 184.38 52.88 184.38 52.88 184.38" style="fill: #7d86fb"/>
    <path d="M52.08,185l-.27-.25c-.27-.23-.54-.46-.8-.71-1.15-1.09-2.34-2.25-3.67-3.6a45.26,45.26,0,0,0-1.61,4.64l-.25.6c-.07.18-.13.32-.19.49-.27,1-.47,2.07-.7,3.44-.61,4.62-1,8.28-1.15,11.84-.06.7-.08,1.35-.11,2s0,1.35-.11,2v1.19l.1.17.22.08h1.72a17.92,17.92,0,0,0,2.12-.19l1.06-.12,1-.12a19,19,0,0,1,2.37-.21,23.21,23.21,0,0,0,2.52-.09c.45-.06.92-.09,1.39-.12s.86,0,1.26-.1c1.75-.22,3.66-.56,5.12-.83l2.82-.63,1-.3,1-.31c.28-.11.55-.19.83-.27a6.59,6.59,0,0,0,.71-.24c1-.41,2-.83,2.9-1.24a9.58,9.58,0,0,0,1.4-.69c.86-.46,1.74-1,2.7-1.54a81.68,81.68,0,0,1-11.67-6c-1.77-1.08-3.23-2.14-4.51-3.07h0l-.82-.59A51.75,51.75,0,0,1,54.38,187l-.77-.65c-.58-.48-1.06-.92-1.42-1.24Z" style="fill: #7d86fb"/>
    <path d="M120.19,186.15a4.55,4.55,0,0,0,.94-.32l.36-.15a13.42,13.42,0,0,0,1.83-.71l.1,0a16,16,0,0,0,2.28-1.09c1-.54,1.88-1.05,2.8-1.66,1.25-.86,2.37-1.77,3.57-2.74l1.12-.91c.24-.19.44-.4.66-.61s.5-.5.78-.73l2.5-2.5a54,54,0,0,0,4.44-5.27c1-1.36,2-2.84,2.91-4.27.65-1.07,1.16-2,1.66-3l.93-2.16a25.7,25.7,0,0,0,1-3c.32-1.07.63-2.07.83-3.08a5.32,5.32,0,0,0,.19-1.18l0-.24a5.81,5.81,0,0,0,.07-1.13l0-1.59a18,18,0,0,0-.37-2.29l-.08-.24a10.71,10.71,0,0,0-1.06-2.43l-.36-.68a4.45,4.45,0,0,0-.33-.52l-.1-.16a1.53,1.53,0,0,0-.23-.26l-.47-.46-.23-.06-.1,0h-.31a1,1,0,0,1-.31.1l-.16.06h0a16,16,0,0,1-2.16,1.07l-.62.26c-.29.15-.63.3-1,.44s-.54.22-.8.35a2.38,2.38,0,0,1-.36.18l-.06,0-2.28.8-.32.06a6.67,6.67,0,0,0-.8.19c-.31.08-.62.16-1,.22a1.77,1.77,0,0,1-.53.13l-2,.32h-.42a7,7,0,0,0-.81.05c-.32,0-.64.05-1,.05h-.32a13.54,13.54,0,0,1-2-.1h-.45a8.6,8.6,0,0,1-1.71-.22,2.05,2.05,0,0,1-.44-.08l-.11,0h-.13c-.34-.06-.7-.14-1.07-.23s-.64-.15-.94-.2a30.64,30.64,0,0,1-14.54-8.66c-.53-.53-1.08-1.19-1.6-1.82a36.39,36.39,0,0,1-8.29-16.79,22,22,0,0,1-.4-2.45l0-.25a26.75,26.75,0,0,1,1.1-11.45,7.78,7.78,0,0,0,.26-.77,7.54,7.54,0,0,1,.29-.88,14.78,14.78,0,0,1,1.33-3.08,29.56,29.56,0,0,1,1.57-2.89l-.24-.3a9.17,9.17,0,0,1,.92-.84,1.91,1.91,0,0,1,.14-.21c.55-.86,1.19-1.71,1.81-2.54.44-.59.92-1.12,1.38-1.63.23-.25.46-.5.67-.75l2.27-2.28,2.2-1.93.23-.39.26,0,.1,0,2.4-1.8c.87-.66,1.74-1.2,2.59-1.73.15-.1.31-.18.45-.26a1.93,1.93,0,0,0,.24-.14l.26-.19a9.33,9.33,0,0,0,1-.6,6.39,6.39,0,0,1,.58-.38,16.75,16.75,0,0,0,1.34-1.16A25.23,25.23,0,0,1,124,78.14a9,9,0,0,1,1-.78,6.25,6.25,0,0,0,.54-.4l.18-.11a3.35,3.35,0,0,0,.44-.29,7.38,7.38,0,0,1,.72-.46,21.14,21.14,0,0,1,2.8-1.25h-.05a2.56,2.56,0,0,0-.35-.09,2.54,2.54,0,0,1-.72-.22l-.12-.07a8.2,8.2,0,0,0-3.71-.94,10.57,10.57,0,0,1-3.06-.61A2.77,2.77,0,0,1,120,69.42a5.47,5.47,0,0,1,1.37-2.82c.21-.29.43-.59.64-.91l.17-.25.26-.12c.38-.17.8-.32,1.24-.47l.64-.23a6.15,6.15,0,0,0,1.7-.88l.15-.11.17-.05c.76-.22,1.52-.42,2.26-.6l.74-.18,1.08-.27,2.08-1.5c.83-.56,1.6-1.14,2.33-1.74a22,22,0,0,0,1.93-1.93,39.59,39.59,0,0,0,3.52-6.65c.33-.82.63-1.6.88-2.36,1.58-4,1.5-8.13,1.41-12.46,0-1,0-1.9,0-2.87a13.69,13.69,0,0,1-3.87,7.75,15,15,0,0,1-2.6,1.76,43,43,0,0,1-10.41,2.89c-4.35.81-8.46,1.58-12.33,4-.62.39-1.25.75-1.89,1.11l-1.1.62c-5.28,3-10.74,6-14.4,12.25l-.11.15c-.45.52-.88,1.06-1.29,1.61S93.71,66.36,93.3,67h0L91.56,66l1.16-1.82q.56-.85,1.11-1.68C97,54.89,102.76,48.65,107,44.73c.49-.5,1-1,1.53-1.59a18.52,18.52,0,0,0,4.61-7.45c.11-.61.21-1.29.31-1.95s.09-1.56.09-2.53v-.43l-.07.1a35.12,35.12,0,0,1-7.63,7.41,53.67,53.67,0,0,1-5.4,3.34l-.63.35a34.63,34.63,0,0,1-3.16,1.6l-1.81.88c-.6.29-1.2.57-1.83.89-.34.17-.67.31-1,.45s-.59.25-.89.39c-1.25.5-2.35,1-3.52,1.58l-1.16.55c-2.13,1.12-4.37,2.29-6.56,3.65-1.14.72-2.2,1.47-3.23,2.19l-2.82,2.19a46.2,46.2,0,0,0-4.64,4.33c-.38.39-.74.77-1.1,1.16s-.77.82-1.15,1.2-.65.77-1,1.19-.71.86-1.08,1.29l-.07.07v.11l-.81.81h-.15a1.18,1.18,0,0,1-.48.1H63l-.22-.1a2.26,2.26,0,0,1-.91-.75,1.34,1.34,0,0,1-.28-.71,1.54,1.54,0,0,1-.09-.3,5.31,5.31,0,0,1-.12-.6,3.17,3.17,0,0,0-.06-.35l-.05-.16v-.16s0,0,0-.07,0-.24-.07-.39a37.26,37.26,0,0,0-2.62-6.85A6.45,6.45,0,0,1,58,55l-.46-.74c-.19-.3-.38-.6-.54-.87a5.11,5.11,0,0,0-.59-.75l-.13-.16a3.4,3.4,0,0,0-.3-.39c-.12-.14-.24-.28-.34-.42h-.22a1.94,1.94,0,0,1,0,.33v1.08a59.57,59.57,0,0,1-.21,7.6l-.32,3.7c-.09,1.15-.27,2.2-.46,3.31l-.08.47c-.11.55-.18,1.06-.26,1.57s-.16,1.1-.27,1.64a57.5,57.5,0,0,1-1.28,5.74,14.21,14.21,0,0,1-.55,2c-.1.29-.17.59-.25.88s-.17.68-.28,1a60.32,60.32,0,0,1-2.89,7.17c-.41.93-.84,1.88-1.15,2.7l0,.1a7,7,0,0,0-.45,1.16l0,.12a68.07,68.07,0,0,0-2.4,7.61c-.41,1.64-.73,3.44-1,5.17a65.31,65.31,0,0,0-.73,8c-.11,2.48-.21,5-.11,7.43a43.29,43.29,0,0,0,.82,7.29,1.83,1.83,0,0,1-.22,1.76,1.11,1.11,0,0,1-.49.47,1.43,1.43,0,0,1-.81.22,1.18,1.18,0,0,1-.6-.14l-.2-.07h-.75v-.77l-.48-.26L39,128.5l-.49-.25a10.15,10.15,0,0,0-1.18-.54l-1.54-.61-.22-.07h0l-.19-.08a6.56,6.56,0,0,0-1.2-.35l-.36,0-.65-.15-.61-.14a1.42,1.42,0,0,1-.59-.16,6.31,6.31,0,0,0-1.07-.15h-.32a7.55,7.55,0,0,1-.8-.06c-.2,0-.4,0-.58,0H27a4.4,4.4,0,0,0-.51,0l-.65.06,0,0-2.09.4a.38.38,0,0,1-.11,0l.22.08.18.07a25.49,25.49,0,0,1,2.86,1.88c.42.31.81.6,1.29.89l.09.06a8.85,8.85,0,0,1,.69.58l.58.48A35.83,35.83,0,0,1,33.12,134a82,82,0,0,1,6.2,7.48c1,1.39,2,2.77,2.8,4.1,3.08,4.55,5.8,8.32,8.52,11.79h.22l.31.43c.17.26.37.5.56.74a11.81,11.81,0,0,1,.74,1c.65.82,1.41,1.73,2.29,2.74s1.76,2,2.68,2.95c1.9,2,3.88,4,5.89,5.88l.89.79c.28.25.56.51.86.76l.9.76a35.32,35.32,0,0,0,2.83,2.25l1,.73c1.13.82,2.19,1.59,3.38,2.3a64.91,64.91,0,0,0,14.19,6.68c.87.29,1.76.55,2.65.81,1.52.43,2.87.78,4.13,1.07.43.12.83.2,1.25.28l1.09.22a3.4,3.4,0,0,1,.65.09l.5.11,0,.09a4.64,4.64,0,0,1,1.11.14,5.14,5.14,0,0,1,.55.06,5.5,5.5,0,0,1,1.4.15,5.09,5.09,0,0,1,1.13.1h2.42a17.63,17.63,0,0,0,2.31-.1h.65c.4,0,.78,0,1.15-.05s.84-.06,1.29-.06l.17,0c1.09-.1,2.21-.2,3.24-.39,1.37-.21,2.75-.52,4.08-.83.81-.18,1.77-.46,2.87-.82Z" style="fill: #7d86fb"/>
  </g>
</svg>
