<svg id="图层_1" data-name="图层 1" xmlns="http://www.w3.org/2000/svg" viewBox="0 0 240 240">
  <g>
    <path d="M141,177.43a7,7,0,0,0,7.2-12,244.24,244.24,0,0,1-48.58-38.27,258.25,258.25,0,0,0,39.49-59.54H156.7v-14H94.85V30.69a6,6,0,1,0-12,0V53.62H23.59v14H41A257.93,257.93,0,0,0,80.5,127.16a244.24,244.24,0,0,1-48.58,38.27,7,7,0,1,0,7.2,12,258.23,258.23,0,0,0,50.95-40A258.23,258.23,0,0,0,141,177.43ZM123.51,67.62a244.34,244.34,0,0,1-33.44,49.22A243.93,243.93,0,0,1,56.63,67.62Z"/>
    <path d="M218.53,221.09l12.83-5.6-42.61-97.64a7,7,0,0,0-12.83,0l-42.61,97.64,12.84,5.6L157,196.25h50.7Zm-56.31-36.84,20.12-46.1,20.11,46.1Z"/>
  </g>
</svg>
